<?xml version="1.0" encoding="UTF-8" standalone="no"?>
<svg
   xmlns:dc="http://purl.org/dc/elements/1.1/"
   xmlns:cc="http://creativecommons.org/ns#"
   xmlns:rdf="http://www.w3.org/1999/02/22-rdf-syntax-ns#"
   xmlns:svg="http://www.w3.org/2000/svg"
   xmlns="http://www.w3.org/2000/svg"
   xmlns:sodipodi="http://sodipodi.sourceforge.net/DTD/sodipodi-0.dtd"
   xmlns:inkscape="http://www.inkscape.org/namespaces/inkscape"
   id="Layer_1"
   data-name="Layer 1"
   viewBox="0 0 168.10001 194.69999"
   version="1.1"
   sodipodi:docname="ipfs.svg"
   width="168.10001"
   height="194.7"
   inkscape:version="0.92.1 r15371">
  <metadata
     id="metadata41290">
    <rdf:RDF>
      <cc:Work
         rdf:about="">
        <dc:format>image/svg+xml</dc:format>
        <dc:type
           rdf:resource="http://purl.org/dc/dcmitype/StillImage" />
        <dc:title>IPFS logo (new)</dc:title>
      </cc:Work>
    </rdf:RDF>
  </metadata>
  <sodipodi:namedview
     pagecolor="#ffffff"
     bordercolor="#666666"
     borderopacity="1"
     objecttolerance="10"
     gridtolerance="10"
     guidetolerance="10"
     inkscape:pageopacity="0"
     inkscape:pageshadow="2"
     inkscape:window-width="1280"
     inkscape:window-height="661"
     id="namedview41288"
     showgrid="false"
     fit-margin-top="0"
     fit-margin-left="0"
     fit-margin-right="0"
     fit-margin-bottom="0"
     inkscape:zoom="0.66726944"
     inkscape:cx="246.2"
     inkscape:cy="95.549998"
     inkscape:window-x="-8"
     inkscape:window-y="-8"
     inkscape:window-maximized="1"
     inkscape:current-layer="Layer_1" />
  <defs
     id="defs41251">
    <style
       id="style41249">.cls-1{fill:#fff;}.cls-2{fill:#469ea2;}.cls-3{fill:#6acad1;}.cls-4,.cls-5{fill:#083b54;}.cls-4{fill-opacity:0.15;}.cls-5{fill-opacity:0.05;}</style>
  </defs>
  <title
     id="title41253">IPFS logo (new)</title>
  <path
     class="cls-2"
     d="m 0,145.5 84,48.5 84,-48.5 v -97 L 84,0 0,48.5 Z"
     id="path41263"
     inkscape:connector-curvature="0"
     style="fill:#469ea2" />
  <path
     class="cls-3"
     d="m 75.4,11.6 -61,35.2 a 18.19,18.19 0 0 1 0,3.3 l 60.9,35.2 a 14.55,14.55 0 0 1 17.3,0 l 60.9,-35.2 a 18.19,18.19 0 0 1 0,-3.3 L 92.7,11.6 a 14.55,14.55 0 0 1 -17.3,0 z m 84,48.2 -61,35.6 a 14.73,14.73 0 0 1 -8.6,15 l 0.1,70 a 15.57,15.57 0 0 1 2.8,1.6 l 60.9,-35.2 a 14.73,14.73 0 0 1 8.6,-15 V 61.4 a 20,20 0 0 1 -2.8,-1.6 z M 8.6,60.2 a 15.57,15.57 0 0 1 -2.8,1.6 v 70.4 a 14.38,14.38 0 0 1 8.6,15 l 60.9,35.2 a 15.57,15.57 0 0 1 2.8,-1.6 v -70.4 a 14.38,14.38 0 0 1 -8.6,-15 z"
     id="path41265"
     inkscape:connector-curvature="0"
     style="fill:#6acad1" />
  <path
     class="cls-2"
     d="m 84,10.5 75.1,43.4 v 86.7 L 84,184 8.9,140.6 V 53.8 L 84,10.5 M 84,0.2 0,48.7 v 97 l 84,48.5 84,-48.5 v -97 z"
     id="path41267"
     inkscape:connector-curvature="0"
     style="fill:#469ea2" />
  <path
     class="cls-2"
     d="M 84.6,113.5 H 83.4 A 15.66,15.66 0 0 1 67.7,97.8 V 96.6 A 15.66,15.66 0 0 1 83.4,80.9 h 1.2 a 15.66,15.66 0 0 1 15.7,15.7 v 1.2 a 15.66,15.66 0 0 1 -15.7,15.7 z"
     id="path41269"
     inkscape:connector-curvature="0"
     style="fill:#469ea2" />
  <path
     class="cls-2"
     d="m 84.6,178 h -1.2 a 15.65,15.65 0 0 0 -13.7,8 L 84,194.2 98.3,186 a 15.65,15.65 0 0 0 -13.7,-8 z"
     id="path41271"
     inkscape:connector-curvature="0"
     style="fill:#469ea2" />
  <path
     class="cls-2"
     d="m 168.1,129.5 h -0.6 a 15.66,15.66 0 0 0 -15.7,15.7 v 1.2 a 15.13,15.13 0 0 0 2,7.6 l 14.3,-8.3 z"
     id="path41273"
     inkscape:connector-curvature="0"
     style="fill:#469ea2" />
  <path
     class="cls-2"
     d="m 153.8,40.5 a 15.4,15.4 0 0 0 -2,7.6 v 1.2 A 15.66,15.66 0 0 0 167.5,65 h 0.6 V 48.7 Z"
     id="path41275"
     inkscape:connector-curvature="0"
     style="fill:#469ea2" />
  <path
     class="cls-2"
     d="M 84,0.2 69.7,8.4 a 15.73,15.73 0 0 0 13.7,8.1 h 1.2 a 15.65,15.65 0 0 0 13.7,-8 z"
     id="path41277"
     inkscape:connector-curvature="0"
     style="fill:#469ea2" />
  <path
     class="cls-2"
     d="M 14.3,40.4 0,48.7 V 65 H 0.6 A 15.66,15.66 0 0 0 16.3,49.3 v -1.2 a 16.63,16.63 0 0 0 -2,-7.7 z"
     id="path41279"
     inkscape:connector-curvature="0"
     style="fill:#469ea2" />
  <path
     class="cls-2"
     d="M 0.6,129.5 H 0 v 16.2 l 14.3,8.3 a 15.4,15.4 0 0 0 2,-7.6 v -1.2 A 15.66,15.66 0 0 0 0.6,129.5 Z"
     id="path41281"
     inkscape:connector-curvature="0"
     style="fill:#469ea2" />
  <path
     class="cls-4"
     d="M 84,194.7 V 97.6 L 0,49.1 v 97.1 z"
     id="path41283"
     inkscape:connector-curvature="0"
     style="fill:#083b54;fill-opacity:0.15" />
  <path
     class="cls-5"
     d="m 168.1,145.3 v -97 l -84,48.5 v 97.1 z"
     id="path41285"
     inkscape:connector-curvature="0"
     style="fill:#083b54;fill-opacity:0.05" />
</svg>
